<svg width="24" height="24" viewBox="0 0 24 24" fill="none" xmlns="http://www.w3.org/2000/svg">
<path d="M3.00002 19C3.00002 18.34 3.00002 17.68 3.00002 17C3.99002 16.505 4.98002 16.01 6.00002 15.5C5.30393 15.1906 5.30393 15.1906 4.59377 14.875C2.25316 13.59 2.25316 13.59 1.50002 12C1.09258 9.58706 1.12621 8.02774 2.56252 6C4.18803 4.86921 5.02257 4.5 7.00002 4.5C10.0431 5.46365 10.0431 5.46365 11.2188 6.84375C12.0022 10.0644 11.6467 12.6316 10 15.5C7.84525 17.7617 6.22872 19 3.00002 19Z" fill="#00C3FF"/>
<path d="M14 18.5C14.5 17 14.5 17 16.0313 16.1563C16.516 15.9397 17.0006 15.7231 17.5 15.5C17.2229 15.3788 16.9457 15.2577 16.6602 15.1328C16.2979 14.9652 15.9357 14.7977 15.5625 14.625C15.2029 14.4626 14.8432 14.3002 14.4727 14.1328C13.2918 13.3645 12.9548 12.8257 12.5 11.5C12.3875 9.37051 12.6456 7.54527 13.8125 5.75001C15.4072 4.74287 16.622 4.5659 18.5 4.50001C20.5335 5.00838 21.4107 5.73263 22.5 7.50001C22.9883 10.3722 22.8682 13.2901 21.2012 15.7461C19.2425 17.8521 16.9132 19.6835 14 18.5Z" fill="#00C3FF"/>
</svg>
