<svg width="24" height="24" viewBox="0 0 24 24" fill="none" xmlns="http://www.w3.org/2000/svg">
<path d="M21 5C21 5.66 21 6.32 21 7C20.01 7.495 19.02 7.99 18 8.5C18.6961 8.80938 18.6961 8.80938 19.4062 9.125C21.7468 10.41 21.7468 10.41 22.5 12C22.9074 14.4129 22.8738 15.9723 21.4375 18C19.812 19.1308 18.9774 19.5 17 19.5C13.9569 18.5363 13.9569 18.5363 12.7812 17.1562C11.9978 13.9356 12.3533 11.3684 14 8.5C16.1547 6.23825 17.7713 5 21 5Z" fill="#00C3FF"/>
<path d="M9.99998 5.49999C9.49998 6.99999 9.49998 6.99999 7.96873 7.84374C7.48404 8.06031 6.99935 8.27687 6.49998 8.49999C6.77713 8.62116 7.05428 8.74234 7.33982 8.86718C7.70205 9.03476 8.06428 9.20234 8.43748 9.37499C8.79713 9.53741 9.15678 9.69984 9.52732 9.86718C10.7082 10.6355 11.0452 11.1743 11.5 12.5C11.6125 14.6295 11.3544 16.4547 10.1875 18.25C8.59284 19.2571 7.37802 19.4341 5.49998 19.5C3.46649 18.9916 2.58925 18.2674 1.49998 16.5C1.01175 13.6278 1.13184 10.7099 2.79881 8.2539C4.75746 6.14793 7.08677 4.3165 9.99998 5.49999Z" fill="#00C3FF"/>
</svg>
