<svg width="67" height="64" viewBox="0 0 67 64" fill="none" xmlns="http://www.w3.org/2000/svg">
<path d="M27.606 2.48163C27.9245 2.49633 27.9245 2.49633 28.2602 2.61224C28.474 2.84984 28.474 2.84984 28.6593 3.16071C28.7286 3.27466 28.7979 3.38862 28.8693 3.50602C28.9408 3.62863 29.0124 3.75123 29.0861 3.87755C29.1611 4.00259 29.2361 4.12764 29.3134 4.25647C29.5314 4.62146 29.7465 4.98804 29.961 5.3551C30.0632 5.52691 30.1654 5.69869 30.2677 5.8704C32.8855 10.34 34.7914 15.2411 36.6285 20.0692C36.8153 20.5599 37.0059 21.0489 37.1988 21.5372C37.9122 23.3728 38.3555 25.2358 38.7269 27.1673C38.7504 27.2828 38.7739 27.3983 38.798 27.5173C39.1145 29.1061 39.1589 30.6874 39.1685 32.302C39.1701 32.4525 39.1701 32.4525 39.1717 32.6061C39.1876 34.6055 39.1876 34.6055 38.7269 35.5265C38.464 35.4911 38.2027 35.4445 37.9419 35.3959C37.822 35.3749 37.7021 35.3538 37.5786 35.3321C37.1985 35.2509 36.8577 35.1627 36.5027 35.0041C36.3331 34.6507 36.2921 34.4636 36.2411 34.0898C35.9076 32.8584 35.3861 31.9388 34.2954 31.2352C33.2125 30.6554 32.2465 30.3953 31.042 30.7143C29.9827 31.1088 29.2884 31.7837 28.7835 32.7837C28.3276 33.8646 28.1973 34.9376 28.5873 36.0571C29.0522 37.0929 29.8113 37.9089 30.8299 38.4173C31.6846 38.731 32.4767 38.6712 33.3627 38.5306C33.4197 38.6565 33.4767 38.7825 33.5355 38.9122C33.6141 39.079 33.6928 39.2456 33.7716 39.4122C33.8272 39.5365 33.8272 39.5365 33.884 39.6633C34.1773 40.2742 34.4714 40.55 35.0636 40.8816C34.527 42.182 32.7684 43.2701 31.531 43.8857C30.5614 44.2569 29.5606 44.4967 28.5219 44.5388C28.3357 44.5489 28.3357 44.5489 28.1457 44.5592C25.0899 44.6489 22.3257 43.5058 20.0176 41.5347C19.9041 41.4377 19.9041 41.4377 19.7882 41.3388C18.1491 39.8202 17.0909 37.7552 16.4442 35.649C16.4125 35.5457 16.3807 35.4425 16.348 35.3362C15.934 33.9054 15.7825 32.4734 15.7901 30.9877C15.7906 30.8363 15.7912 30.6848 15.7917 30.5288C15.8826 23.4108 18.8162 16.7599 22.3727 10.7102C22.5103 10.474 22.6476 10.2377 22.785 10.0014C26.5336 3.55223 26.5336 3.55223 27.606 2.48163ZM26.2977 6.66122C26.0813 7.01217 25.8729 7.36483 25.668 7.72244C25.6038 7.83425 25.5397 7.94606 25.4735 8.06125C25.2677 8.42131 25.063 8.78201 24.8585 9.14285C24.7944 9.25526 24.7303 9.36767 24.6642 9.48348C21.1207 15.7202 17.6193 23.6148 17.9243 30.9551C17.9675 30.9551 18.0106 30.9551 18.0551 30.9551C18.0622 30.8774 18.0693 30.7997 18.0766 30.7196C18.4199 27.1293 19.198 23.7249 20.541 20.3755C20.5864 20.2611 20.6318 20.1467 20.6786 20.0288C21.2566 18.5829 21.9064 17.1805 22.6343 15.8041C22.6938 15.6917 22.7532 15.5793 22.8144 15.4635C24.6759 11.9622 24.6759 11.9622 25.6762 10.7434C25.9319 10.4767 25.9319 10.4767 25.9052 10.1878C25.9915 10.1878 26.0779 10.1878 26.1668 10.1878C26.7507 9.29466 26.7507 9.29466 26.96 8.27755C26.9142 8.13208 26.8683 7.98661 26.821 7.83673C26.7883 7.73217 26.7556 7.62762 26.7219 7.51989C26.6293 7.23149 26.5314 6.94608 26.4285 6.66122C26.3853 6.66122 26.3422 6.66122 26.2977 6.66122ZM20.1485 38.5306C20.6303 39.9736 22.2452 40.9918 23.5502 41.6653C25.5333 42.5006 27.2901 42.4631 29.3069 41.7959C29.2052 41.6959 29.1035 41.5959 28.9987 41.4929C28.6527 41.1429 28.6527 41.1429 28.3501 40.7673C28.0089 40.4354 28.0089 40.4354 27.5079 40.5143C27.3225 40.5496 27.1372 40.585 26.9519 40.6204C24.6346 40.8431 22.3606 39.787 20.4101 38.6612C20.3238 38.6181 20.2374 38.575 20.1485 38.5306ZM29.3069 39.5755C29.1773 39.7695 29.1773 39.7695 29.0452 39.9673C29.2693 40.1684 29.4961 40.3665 29.7239 40.5633C29.9129 40.7292 29.9129 40.7292 30.1057 40.8985C30.4606 41.1786 30.4606 41.1786 30.8508 41.1301C31.1605 41.04 31.1605 41.04 31.2694 40.751C31.1905 40.699 31.1115 40.647 31.0302 40.5934C30.8734 40.4896 30.8734 40.4896 30.7133 40.3837C30.5585 40.2814 30.5585 40.2814 30.4006 40.177C30.1983 40.0397 30.0004 39.8959 29.8077 39.7454C29.5819 39.5503 29.5819 39.5503 29.3069 39.5755Z" fill="#00C3FF"/>
<path d="M39.7736 28.3428C39.8599 28.3428 39.9463 28.3428 40.0352 28.3428C40.9964 30.5553 41.3489 32.8984 41.7361 35.2653C41.8904 35.2071 41.8904 35.2071 42.0478 35.1476C44.1789 34.3434 46.5517 34.3194 48.6554 35.243C51.1309 36.3826 52.8402 38.3904 53.9037 40.8816C54.0737 41.3996 54.1981 41.9132 54.2962 42.449C54.3198 42.5545 54.3434 42.6601 54.3677 42.7689C54.7716 45.0386 54.0762 47.4569 52.857 49.3714C51.4913 51.2899 49.1341 52.6201 46.8386 53.0285C44.5045 53.4153 42.3485 52.9008 40.3915 51.5908C38.2759 50.0455 37.1482 48.1026 36.5027 45.5837C36.4393 45.6357 36.3759 45.6877 36.3106 45.7413C35.0235 46.7569 33.7912 46.9368 32.1852 46.7592C31.5473 46.6029 31.1434 46.3722 30.6806 45.9102C30.5041 45.6165 30.4035 45.3977 30.3535 45.0612C30.7682 44.7044 31.1778 44.4397 31.67 44.201C32.792 43.6551 33.6826 42.9509 34.5985 42.1118C34.8932 41.8432 35.1957 41.5837 35.4969 41.3224C35.8581 41.0129 35.8581 41.0129 36.1102 40.6204C35.9969 40.6096 35.8835 40.5988 35.7668 40.5877C34.9354 40.4033 34.4805 39.9492 34.0143 39.2729C33.6449 38.6397 33.6581 37.9317 33.7552 37.2245C34.0875 36.4003 34.5314 35.8009 35.3252 35.3959C36.146 35.1228 37.0218 35.1828 37.8162 35.5178C38.2884 35.7742 38.7051 36.1009 39.1194 36.4408C39.7009 33.9621 39.8845 31.6561 39.6778 29.1152C39.6614 28.9016 39.6514 28.6875 39.6427 28.4734C39.6859 28.4303 39.7291 28.3872 39.7736 28.3428ZM38.8169 39.4041C38.5587 39.91 38.402 40.3107 38.4652 40.8816C38.7315 41.5257 39.1572 42.1133 39.7736 42.449C40.3775 42.5582 40.9075 42.5139 41.4581 42.2367C41.9729 41.8461 42.1973 41.5304 42.3003 40.8877C42.3298 40.4065 42.2717 40.124 42.0632 39.6816C41.5609 39.1175 41.0378 38.7168 40.2806 38.5959C39.6343 38.7081 39.2468 38.9052 38.8169 39.4041ZM38.2036 43.6245C38.0903 45.4415 38.5268 47.2511 39.6709 48.6913C39.9584 49.0147 40.2532 49.326 40.5586 49.6326C40.6314 49.7072 40.7043 49.7818 40.7794 49.8587C40.9219 50.0029 41.0669 50.1448 41.2128 50.2857C41.3423 50.221 41.3423 50.221 41.4744 50.1551C41.4144 50.0729 41.3543 49.9908 41.2925 49.9061C40.2201 48.4127 39.5538 46.8953 39.4465 45.0367C39.4178 44.5973 39.4063 44.445 39.1521 44.0734C38.8443 43.8771 38.5498 43.7397 38.2036 43.6245Z" fill="#00C3FF"/>
<path d="M14.7843 24.1633C15.2727 24.5425 15.517 24.8858 15.7001 25.4694C15.7303 25.9388 15.7303 25.9388 15.7246 26.449C15.7238 26.6174 15.7229 26.7857 15.7221 26.9592C15.7036 27.3544 15.6535 27.6974 15.5693 28.0816C15.0863 32.1531 15.3249 36.6734 17.2701 40.3592C17.3391 40.4989 17.4081 40.6387 17.4791 40.7827C17.9578 41.6937 18.5059 42.454 19.2081 43.2082C19.2793 43.2847 19.3504 43.3611 19.4237 43.4399C20.5604 44.6159 21.8594 45.5291 23.2476 46.3837C24.3125 47.0398 25.2806 47.703 26.1668 48.5878C26.1832 48.9959 26.1832 48.9959 26.1668 49.3714C25.589 49.7342 25.1432 49.5935 24.5002 49.4735C23.8567 49.3196 23.2468 49.097 22.6343 48.849C22.7352 48.9104 22.836 48.9719 22.9399 49.0352C23.0711 49.1165 23.2024 49.1979 23.3375 49.2816C23.4681 49.362 23.5986 49.4423 23.7331 49.525C24.0735 49.7633 24.0735 49.7633 24.3352 50.1551C24.3597 50.498 24.3597 50.498 24.3352 50.8082C24.2043 50.9388 24.2043 50.9388 23.7582 50.9867C23.0158 50.9772 22.4373 50.6392 21.7921 50.302C20.3807 49.5736 19.141 49.2069 17.5318 49.3714C17.0955 49.542 17.0955 49.542 16.7468 49.8939C16.6417 49.9826 16.5366 50.0713 16.4284 50.1628C15.8185 50.6868 15.3519 51.1764 14.9151 51.8531C14.3252 52.4491 13.7958 52.8323 12.9526 52.9551C12.5601 52.898 12.5601 52.898 12.1839 52.6367C11.8737 52.1995 11.8329 51.9869 11.8318 51.4694C11.9635 50.9907 12.2263 50.6652 12.6575 50.414C12.9302 50.2847 13.2058 50.1659 13.4841 50.049C15.2967 49.2658 15.2967 49.2658 16.548 47.8174C16.83 46.6784 16.6678 45.5532 16.0926 44.5388C15.8881 44.2606 15.6702 44.0121 15.4384 43.7551C15.4384 43.6689 15.4384 43.5827 15.4384 43.4939C15.3089 43.4508 15.1794 43.4077 15.0459 43.3633C15.0459 43.2771 15.0459 43.1909 15.0459 43.102C14.9596 43.102 14.8732 43.102 14.7843 43.102C14.5848 42.8894 14.3956 42.6672 14.2119 42.4408C14.111 42.3181 14.0102 42.1953 13.9062 42.0689C13.3968 41.3823 13.0392 40.7667 12.8953 39.9102C12.8807 39.8262 12.866 39.7422 12.8509 39.6556C12.7517 39.074 12.6647 38.4904 12.5766 37.907C12.5345 37.6288 12.4921 37.3506 12.4497 37.0724C12.3928 36.6998 12.3378 36.3269 12.2839 35.9539C12.0269 34.2175 11.584 33.0815 10.3114 31.8531C9.67404 31.2241 9.40315 30.7488 9.36282 29.8449C9.38776 29.187 9.46854 28.8279 9.9434 28.3429C10.7566 27.7426 11.6217 27.2785 12.5601 26.9061C12.557 26.7896 12.554 26.6731 12.5509 26.5531C12.5473 26.3238 12.5473 26.3238 12.5437 26.0898C12.5407 25.9383 12.5377 25.7867 12.5345 25.6306C12.5592 25.2225 12.5871 25.015 12.8218 24.6857C13.4127 24.2463 14.0516 24.0391 14.7843 24.1633Z" fill="#00C3FF"/>
<path d="M53.2495 22.9877C53.3686 23.353 53.3906 23.6496 53.3584 24.0316C53.3219 24.5524 53.3551 24.7818 53.6665 25.2081C54.3042 25.6583 55.1262 25.5427 55.8662 25.4694C56.1726 25.3864 56.4781 25.2998 56.782 25.2081C57.3916 25.1493 57.913 25.1344 58.4829 25.3714C58.8869 25.7244 58.9831 25.9711 59.0635 26.4979C58.9824 27.0756 58.7635 27.2791 58.352 27.6898C57.9286 27.8307 57.5888 27.8157 57.1473 27.7985C56.1094 27.7631 55.2406 27.7405 54.427 28.4735C54.0146 28.9146 53.9037 29.1183 53.9037 29.7224C53.9926 30.21 54.1511 30.6722 54.3044 31.1428C54.6372 32.2159 54.7583 32.8306 54.2288 33.8556C54.1432 34.0166 54.0573 34.1774 53.9711 34.338C53.6384 34.9703 53.504 35.3476 53.642 36.049C53.906 36.5871 54.2537 36.9178 54.705 37.2979C55.3781 37.8685 55.3781 37.8685 55.4737 38.4C55.418 39.1086 55.418 39.1086 55.0812 39.4449C54.5304 39.5189 54.2463 39.4927 53.7647 39.2081C53.4083 38.8805 53.2263 38.5122 53.0124 38.0816C52.6709 37.4097 52.3204 37.1124 51.678 36.7362C51.2427 36.4605 51.0825 36.1294 50.9514 35.6455C50.8733 35.1236 50.8889 34.6153 50.9001 34.0888C50.9031 33.8522 50.9059 33.6156 50.9085 33.3791C50.9133 33.0109 50.9189 32.6428 50.9268 32.2747C50.9737 29.9754 50.6711 27.9013 49.8281 25.7533C49.5795 25.0735 49.5667 24.6139 49.717 23.902C50.0199 23.3296 50.3045 22.9995 50.8945 22.7265C51.7237 22.4869 52.5302 22.4748 53.2495 22.9877Z" fill="#00C3FF"/>
<path d="M36.5027 11.3633C36.874 11.6435 37.208 11.9622 37.5494 12.2776C38.3717 12.9953 39.2811 13.2433 40.3542 13.3796C40.8219 13.2999 40.9353 13.1878 41.2128 12.8C41.3596 12.4659 41.491 12.1301 41.6145 11.7867C41.7361 11.4939 41.7361 11.4939 41.9978 11.2327C42.3412 11.2816 42.3412 11.2816 42.652 11.3633C42.8268 11.9378 42.7347 12.2044 42.4557 12.7265C42.2381 13.175 42.1286 13.4061 42.1286 13.9102C42.2663 14.2539 42.3458 14.4212 42.652 14.6286C43.0494 14.7748 43.2309 14.79 43.625 14.6286C43.9242 14.3955 44.0998 14.1974 44.3283 13.9021C44.7669 13.3694 45.1089 13.2676 45.792 13.1918C46.2107 13.2847 46.3841 13.3867 46.6751 13.698C47.0179 14.2798 47.0234 14.8782 46.9695 15.5429C46.8823 15.8476 46.795 16.1524 46.7078 16.4572C46.6248 17.1537 46.7019 17.6959 47.1003 18.2857C47.4979 18.5985 47.9404 18.7507 48.4087 18.9306C49.0222 19.1703 49.4836 19.4259 49.8969 19.951C50.0264 20.4164 50.0044 20.8384 49.8478 21.2898C49.421 21.7055 49.1353 21.8008 48.5477 21.8939C47.8856 21.8538 47.5289 21.5057 47.1003 21.0286C46.9353 20.8174 46.7719 20.6051 46.6097 20.3918C44.7096 17.9691 41.5116 17.0826 38.5961 16.7184C38.3858 16.6963 38.1754 16.675 37.9649 16.6546C37.8647 16.6445 37.7645 16.6344 37.6612 16.6241C37.4723 16.6058 37.2832 16.5897 37.094 16.576C36.4838 16.5184 36.1412 16.3788 35.7177 15.9347C35.544 15.5924 35.544 15.5924 35.4234 15.2245C35.3822 15.1034 35.3411 14.9824 35.2987 14.8577C35.1016 14.178 35.0426 13.567 35.039 12.8572C35.0372 12.6873 35.0353 12.5174 35.0334 12.3424C35.0609 11.9254 35.0798 11.6962 35.3252 11.3633C35.8144 11.2005 36.007 11.2139 36.5027 11.3633Z" fill="#00C3FF"/>
<path d="M36.3489 48.4724C36.7217 48.7626 37.0386 49.1013 37.2877 49.502C37.2877 49.5882 37.2877 49.6744 37.2877 49.7633C37.4011 49.815 37.4011 49.815 37.5167 49.8679C38.3557 50.3143 39.0135 50.9815 39.3811 51.8531C39.457 52.3241 39.4881 52.7403 39.2094 53.151C38.619 53.5221 37.9591 53.4904 37.2877 53.4204C36.9644 53.3184 36.6634 53.1906 36.3533 53.0539C34.7473 52.3841 33.2777 52.2978 31.5637 52.2939C28.1287 52.272 28.1287 52.272 26.9518 51.5918C27.0663 50.9551 27.0663 50.9551 27.2135 50.8082C27.4178 50.7968 27.6227 50.7942 27.8273 50.7954C27.9508 50.7958 28.0744 50.7963 28.2017 50.7967C28.3966 50.7983 28.3966 50.7983 28.5954 50.8C28.7259 50.8006 28.8564 50.8012 28.9908 50.8018C29.3142 50.8033 29.6376 50.8055 29.961 50.8082C29.961 50.722 29.961 50.6358 29.961 50.5469C29.8632 50.553 29.7654 50.5591 29.6646 50.5653C28.5991 50.6043 28.5991 50.6043 28.1702 50.2857C28.1136 50.1995 28.0569 50.1133 27.9985 50.0245C28.2187 49.8047 28.4983 49.8641 28.8004 49.8526C28.9357 49.8471 29.0711 49.8416 29.2105 49.836C29.4242 49.8283 29.4242 49.8283 29.6421 49.8204C29.8565 49.8119 29.8565 49.8119 30.0753 49.8033C30.4297 49.7894 30.7841 49.7761 31.1385 49.7633C30.993 49.7524 30.993 49.7524 30.8445 49.7414C30.4055 49.7084 29.9666 49.6746 29.5276 49.6408C29.2986 49.6238 29.2986 49.6238 29.0649 49.6064C28.9186 49.595 28.7723 49.5836 28.6215 49.5719C28.419 49.5565 28.419 49.5565 28.2125 49.5408C27.8677 49.502 27.8677 49.502 27.4752 49.3714C27.3198 49.102 27.3198 49.102 27.2135 48.849C27.2999 48.7197 27.3862 48.5904 27.4752 48.4571C27.8289 48.427 28.1525 48.4212 28.5055 48.4327C28.6099 48.4341 28.7143 48.4356 28.8219 48.4371C29.2678 48.4435 29.7136 48.4543 30.1595 48.4652C31.4818 48.4947 32.7309 48.4594 34.0315 48.1989C34.8749 48.0316 35.601 48.0152 36.3489 48.4724Z" fill="#00C3FF"/>
<path d="M37.9419 19.9837C38.6019 20.0418 38.9159 20.3246 39.3811 20.7674C39.3811 20.8536 39.3811 20.9398 39.3811 21.0286C39.4578 21.0628 39.5345 21.097 39.6135 21.1322C39.9207 21.2986 40.125 21.4763 40.3721 21.722C40.4588 21.808 40.5455 21.894 40.6349 21.9827C40.7712 22.1206 40.7712 22.1206 40.9102 22.2613C41.0512 22.4034 41.0512 22.4034 41.195 22.5485C42.5085 23.8863 43.582 25.3477 44.6145 26.9062C44.6946 27.0264 44.7747 27.1466 44.8572 27.2704C45.7371 28.6568 46.3376 30.2121 46.1845 31.8694C45.9793 32.3507 45.7348 32.6687 45.2686 32.9143C44.4923 33.0186 43.9427 32.8137 43.3061 32.3919C42.3175 31.4583 42.2604 29.8812 42.0798 28.6118C41.938 27.6865 41.6959 26.8586 41.3436 25.9919C41.3062 25.8978 41.2689 25.8037 41.2304 25.7067C40.5333 23.9853 39.5992 22.5396 38.4537 21.0799C38.3875 20.9943 38.3213 20.9086 38.2532 20.8204C38.1932 20.7441 38.1333 20.6677 38.0715 20.5891C37.9419 20.3755 37.9419 20.3755 37.9419 19.9837Z" fill="#00C3FF"/>
<path d="M37.9419 18.0245C41.3434 18.7447 44.4586 20.2391 46.9695 22.6694C47.0402 22.737 47.111 22.8047 47.1839 22.8744C47.7406 23.4338 48.2611 24.0848 48.2901 24.9005C48.1746 25.3215 48.0727 25.6539 47.8117 26.0081C47.2852 26.1968 46.8462 26.1588 46.3153 25.9918C45.6137 25.5811 45.1581 24.9436 44.6799 24.302C42.9727 22.0175 40.7025 20.0781 38.1839 18.7378C38.104 18.6748 38.0242 18.6118 37.9419 18.5469C37.9419 18.3745 37.9419 18.2021 37.9419 18.0245Z" fill="#00C3FF"/>
<path d="M45.2686 25.7306C45.8557 25.8435 46.188 26.1783 46.6097 26.5796C46.6854 26.651 46.7612 26.7224 46.8393 26.796C49.8927 29.7021 49.8927 29.7021 50.0098 31.2316C50.013 31.3936 50.0162 31.5556 50.0195 31.7224C50.0269 31.9644 50.0269 31.9644 50.0344 32.2112C49.9786 32.653 49.9786 32.653 49.7466 32.9689C49.3181 33.2728 48.9089 33.2571 48.4086 33.1755C47.8457 32.9382 47.6367 32.6652 47.362 32.1306C47.2211 31.7082 47.1082 31.2792 46.994 30.849C46.6 29.421 46.1694 27.996 45.4812 26.6775C45.2686 26.253 45.2686 26.253 45.2686 25.7306Z" fill="#00C3FF"/>
<path d="M12.4293 35.0041C12.7893 35.3635 12.7893 35.6555 12.879 36.1551C12.8954 36.2457 12.9119 36.3363 12.9288 36.4296C13.0883 37.332 13.2147 38.2395 13.3333 39.1481C13.466 40.1331 13.5951 40.8899 14.2609 41.6653C14.2609 41.7515 14.2609 41.8377 14.2609 41.9265C14.4552 41.9912 14.4552 41.9912 14.6534 42.0572C14.6534 42.1865 14.6534 42.3158 14.6534 42.449C14.8261 42.5352 14.9988 42.6214 15.1768 42.7102C15.1768 42.7964 15.1768 42.8826 15.1768 42.9714C15.3495 43.0576 15.5222 43.1438 15.7001 43.2327C15.7001 43.3189 15.7001 43.4051 15.7001 43.4939C15.8944 43.5585 15.8944 43.5585 16.0926 43.6245C16.2935 43.8668 16.2935 43.8668 16.4933 44.1714C16.5596 44.2703 16.6259 44.3691 16.6941 44.4709C17.2719 45.5073 17.3488 46.7764 17.1393 47.9347C16.7423 48.7617 16.1664 49.2981 15.3076 49.6327C15.2644 49.7189 15.2213 49.8051 15.1768 49.8939C14.9146 50.0153 14.9146 50.0153 14.5798 50.1388C14.1328 50.3091 13.7047 50.4907 13.2797 50.7102C12.8218 50.9388 12.8218 50.9388 12.5601 50.9388C12.5346 51.1291 12.5103 51.3196 12.4865 51.5102C12.4728 51.6163 12.4592 51.7224 12.4451 51.8316C12.4054 52.1207 12.4054 52.1207 12.5601 52.3755C13.3154 52.4358 13.6583 52.3008 14.2609 51.8531C14.3473 51.8531 14.4336 51.8531 14.5226 51.8531C14.5376 51.777 14.5526 51.7009 14.5681 51.6225C14.6598 51.309 14.7819 51.1048 14.9723 50.8408C15.0288 50.7607 15.0853 50.6805 15.1436 50.598C15.1977 50.538 15.2518 50.4781 15.3076 50.4163C15.394 50.4163 15.4803 50.4163 15.5693 50.4163C15.5693 50.3301 15.5693 50.2439 15.5693 50.1551C15.7706 49.9434 15.7706 49.9434 16.0436 49.7061C16.1316 49.6282 16.2196 49.5502 16.3103 49.4699C17.0083 48.9468 17.5982 48.7796 18.464 48.7918C18.5619 48.7928 18.6598 48.7938 18.7607 48.7948C20.0965 48.834 21.1618 49.3178 22.3083 49.973C22.712 50.1985 23.121 50.3756 23.5502 50.5469C23.4854 50.7409 23.4854 50.7409 23.4193 50.9388C22.6597 50.7095 21.9727 50.3687 21.2659 50.0143C20.0674 49.4329 18.8633 49.2353 17.5318 49.3714C17.0955 49.542 17.0955 49.542 16.7468 49.8939C16.5892 50.027 16.5892 50.027 16.4284 50.1628C15.8185 50.6868 15.3519 51.1764 14.9151 51.8531C14.3253 52.4491 13.7958 52.8324 12.9526 52.9551C12.5601 52.898 12.5601 52.898 12.1839 52.6367C11.8737 52.1995 11.8329 51.9869 11.8318 51.4694C11.9635 50.9907 12.2263 50.6652 12.6575 50.414C12.9302 50.2847 13.2058 50.1659 13.4841 50.049C15.2967 49.2658 15.2967 49.2658 16.548 47.8174C16.83 46.6784 16.6678 45.5532 16.0926 44.5388C15.8881 44.2606 15.6702 44.0121 15.4384 43.7551C15.4384 43.6689 15.4384 43.5827 15.4384 43.4939C15.2442 43.4292 15.2442 43.4292 15.0459 43.3633C15.0459 43.2771 15.0459 43.1909 15.0459 43.102C14.9596 43.102 14.8732 43.102 14.7843 43.102C14.5848 42.8894 14.3956 42.6672 14.2119 42.4408C14.111 42.3181 14.0102 42.1953 13.9063 42.0689C13.3614 41.3347 13.0336 40.7349 12.879 39.8204C12.864 39.7328 12.8491 39.6452 12.8336 39.5549C12.7839 39.2573 12.7374 38.9593 12.6909 38.6612C12.6721 38.5459 12.6534 38.4306 12.634 38.3118C12.5748 37.9469 12.518 37.5817 12.462 37.2163C12.4437 37.1014 12.4253 36.9865 12.4065 36.8681C12.31 36.2077 12.2975 35.6593 12.4293 35.0041Z" fill="#00C3FF"/>
<path d="M27.4752 48.4571C27.7742 48.4143 27.7742 48.4143 28.1375 48.4245C28.3293 48.4295 28.3293 48.4295 28.5249 48.4347C29.0513 48.465 29.5691 48.5193 30.0919 48.5877C30.0919 48.7171 30.0919 48.8464 30.0919 48.9796C29.7702 48.9612 29.4486 48.9421 29.127 48.9224C29.0356 48.9173 28.9441 48.9122 28.85 48.9069C28.159 48.8638 28.159 48.8638 27.8677 48.7184C27.8677 48.8477 27.8677 48.977 27.8677 49.1102C27.9931 49.1135 28.1186 49.1167 28.2479 49.1201C28.7126 49.1324 29.1773 49.1455 29.6421 49.1588C29.8433 49.1645 30.0446 49.1699 30.2459 49.1751C30.5349 49.1827 30.824 49.191 31.113 49.1995C31.2032 49.2017 31.2934 49.2038 31.3864 49.2061C32.0246 49.2259 32.0246 49.2259 32.316 49.3714C32.267 49.6898 32.267 49.6898 32.1852 50.0245C31.8146 50.2095 31.4689 50.2003 31.0568 50.2286C30.9013 50.2395 30.7458 50.2504 30.5856 50.2617C30.4658 50.2696 30.3461 50.2776 30.2227 50.2857C30.3522 50.3719 30.4817 50.4581 30.6152 50.5469C30.6152 50.6331 30.6152 50.7193 30.6152 50.8082C30.2374 51.1641 29.9819 51.2481 29.4684 51.2383C29.352 51.237 29.2356 51.2357 29.1157 51.2344C28.9953 51.2311 28.8749 51.2279 28.7508 51.2245C28.6284 51.2227 28.5059 51.2209 28.3798 51.2191C28.0782 51.2145 27.7767 51.2081 27.4752 51.2C27.5785 51.483 27.5785 51.483 27.8439 51.5416C29.0882 51.7769 30.3346 51.7724 31.5965 51.7877C35.2945 51.8326 35.2945 51.8326 36.5027 52.6367C36.5027 52.7229 36.5027 52.8091 36.5027 52.8979C37.2799 52.8979 38.057 52.8979 38.8578 52.8979C38.8774 51.7954 38.8774 51.7954 38.3344 50.9388C38.0123 50.6963 37.6804 50.4764 37.3424 50.2566C36.8981 49.9306 36.6581 49.5768 36.3719 49.1102C36.7111 49.2503 36.879 49.3494 37.0997 49.649C37.1617 49.7298 37.2238 49.8106 37.2877 49.8939C37.4173 49.8939 37.5468 49.8939 37.6802 49.8939C37.991 50.1235 37.991 50.1235 38.3344 50.4326C38.4478 50.5327 38.5611 50.6327 38.6779 50.7357C39.1303 51.2215 39.4383 51.7231 39.4302 52.4C39.3811 52.8979 39.3811 52.8979 39.2094 53.151C38.619 53.5221 37.9591 53.4904 37.2877 53.4204C36.9644 53.3184 36.6634 53.1906 36.3533 53.0539C34.7473 52.3841 33.2777 52.2978 31.5637 52.2939C28.1287 52.272 28.1287 52.272 26.9518 51.5918C27.0663 50.9551 27.0663 50.9551 27.2135 50.8082C27.4178 50.7968 27.6227 50.7942 27.8273 50.7954C27.9508 50.7958 28.0744 50.7962 28.2017 50.7967C28.3966 50.7983 28.3966 50.7983 28.5954 50.8C28.7259 50.8006 28.8564 50.8012 28.9908 50.8018C29.3142 50.8033 29.6376 50.8055 29.961 50.8082C29.961 50.7219 29.961 50.6357 29.961 50.5469C29.8632 50.553 29.7654 50.5591 29.6646 50.5653C28.5991 50.6043 28.5991 50.6043 28.1702 50.2857C28.1136 50.1995 28.0569 50.1133 27.9985 50.0245C28.2187 49.8047 28.4983 49.8641 28.8004 49.8525C28.9357 49.8471 29.0711 49.8416 29.2105 49.836C29.4242 49.8283 29.4242 49.8283 29.6421 49.8204C29.8565 49.8119 29.8565 49.8119 30.0753 49.8033C30.4297 49.7894 30.7841 49.7761 31.1385 49.7633C30.993 49.7524 30.993 49.7524 30.8445 49.7413C30.4055 49.7083 29.9666 49.6746 29.5276 49.6408C29.2986 49.6238 29.2986 49.6238 29.0649 49.6064C28.9186 49.595 28.7723 49.5836 28.6215 49.5719C28.419 49.5565 28.419 49.5565 28.2125 49.5408C27.8677 49.502 27.8677 49.502 27.4752 49.3714C27.3198 49.102 27.3198 49.102 27.2135 48.849C27.2999 48.7197 27.3862 48.5904 27.4752 48.4571Z" fill="#00C3FF"/>
<path d="M27.606 2.48163C27.6924 2.48163 27.7787 2.48163 27.8677 2.48163C27.9324 2.74024 27.9324 2.74024 27.9985 3.00408C27.869 3.04718 27.7395 3.09028 27.606 3.13469C27.433 3.42049 27.433 3.42049 27.2871 3.76326C27.0608 4.26798 26.8238 4.57928 26.4285 4.96326C26.2963 5.16022 26.171 5.36194 26.0524 5.56734C25.9852 5.68217 25.9181 5.797 25.849 5.9153C25.7812 6.03215 25.7134 6.149 25.6435 6.26938C25.5131 6.48731 25.3822 6.705 25.251 6.92244C25.1861 7.03054 25.1211 7.13863 25.0542 7.25C24.9253 7.4644 24.7962 7.67869 24.6668 7.89285C24.1557 8.74023 23.6552 9.59354 23.1577 10.449C23.1092 10.5306 23.0608 10.6123 23.011 10.6964C22.5854 11.421 22.221 12.1775 21.8493 12.9306C21.763 12.9306 21.6766 12.9306 21.5876 12.9306C21.5553 13.0411 21.5229 13.1515 21.4895 13.2653C21.3435 13.6661 21.162 13.9953 20.9432 14.3592C20.7145 14.7975 20.5684 15.2636 20.4137 15.7321C20.2793 16.0653 20.2793 16.0653 20.092 16.3095C19.8804 16.5965 19.7479 16.8652 19.6093 17.1929C19.5598 17.309 19.5103 17.4252 19.4593 17.5449C19.4088 17.6654 19.3583 17.786 19.3062 17.9102C19.2562 18.0277 19.2062 18.1452 19.1547 18.2663C18.3507 20.1632 17.6009 22.0577 17.1115 24.0617C17.0456 24.3167 16.9629 24.5672 16.8776 24.8163C16.7481 24.8594 16.6186 24.9025 16.4851 24.9469C16.5425 24.0575 16.6917 23.2658 16.9839 22.4245C17.0234 22.3088 17.0629 22.1932 17.1037 22.0741C18.4854 18.1294 20.2557 14.3113 22.3726 10.7102C22.5103 10.474 22.6476 10.2377 22.7849 10.0014C26.5336 3.55223 26.5336 3.55223 27.606 2.48163Z" fill="#00C3FF"/>
<path d="M36.5027 11.3633C36.874 11.6435 37.208 11.9622 37.5494 12.2776C38.3717 12.9953 39.2811 13.2433 40.3542 13.3796C40.8219 13.2999 40.9353 13.1878 41.2128 12.8C41.3596 12.4659 41.491 12.1301 41.6145 11.7867C41.7361 11.4939 41.7361 11.4939 41.9978 11.2327C42.3412 11.2816 42.3412 11.2816 42.6519 11.3633C42.8268 11.9378 42.7347 12.2044 42.4557 12.7265C42.238 13.175 42.1286 13.4061 42.1286 13.9102C42.2663 14.2539 42.3458 14.4212 42.6519 14.6286C43.0494 14.7748 43.2309 14.79 43.625 14.6286C43.9242 14.3955 44.0998 14.1974 44.3283 13.9021C44.7669 13.3694 45.1089 13.2676 45.792 13.1918C46.2107 13.2847 46.3841 13.3867 46.6751 13.698C47.0179 14.2797 47.0235 14.8782 46.9695 15.5429C46.9263 15.691 46.8831 15.8392 46.8386 15.9918C46.6808 16.5531 46.6842 17.0545 46.7078 17.6327C46.6215 17.6327 46.5351 17.6327 46.4461 17.6327C46.3814 17.762 46.3814 17.762 46.3153 17.8939C46.1579 17.5797 46.1713 17.378 46.1763 17.0286C46.1775 16.9218 46.1787 16.8151 46.1799 16.7051C46.1814 16.6233 46.1829 16.5415 46.1845 16.4572C46.2708 16.4572 46.3572 16.4572 46.4461 16.4572C46.4219 16.3548 46.3976 16.2524 46.3725 16.147C46.3153 15.8041 46.3153 15.8041 46.4461 15.5429C46.4958 14.7996 46.4474 14.3695 46.0536 13.7143C45.514 13.7031 45.2602 13.7307 44.8577 14.1061C44.6767 14.315 44.4994 14.527 44.3262 14.7424C43.9886 15.1417 43.782 15.2739 43.2571 15.3225C42.7387 15.2778 42.5248 15.2212 42.1286 14.8898C41.7779 14.4161 41.6053 14.0563 41.6053 13.4531C41.3462 13.6686 41.0872 13.8841 40.8203 14.1061C40.8203 14.0199 40.8203 13.9337 40.8203 13.8449C40.6138 13.8611 40.6138 13.8611 40.4032 13.8776C39.2836 13.8776 38.0636 13.4494 37.1569 12.8C36.9279 12.4572 36.9279 12.4572 36.7644 12.147C36.3094 11.8442 36.1195 11.8636 35.5869 11.8857C35.4574 11.8857 35.3278 11.8857 35.1944 11.8857C35.2353 11.6327 35.2353 11.6327 35.3252 11.3633C35.8144 11.2005 36.007 11.2139 36.5027 11.3633Z" fill="#00C3FF"/>
<path d="M51.287 28.9959C51.3968 29.7526 51.4339 30.4806 51.426 31.2444C51.4255 31.3561 51.425 31.4678 51.4245 31.5829C51.4224 32.0559 51.4187 32.5289 51.4151 33.0019C51.4128 33.3494 51.4112 33.6969 51.4097 34.0444C51.4086 34.1493 51.4075 34.2542 51.4064 34.3624C51.4034 35.0652 51.4602 35.7434 51.5487 36.4408C51.743 36.3762 51.743 36.3762 51.9412 36.3102C52.2601 36.4816 52.2601 36.4816 52.5953 36.702C52.7249 36.7518 52.7249 36.7518 52.857 36.8025C53.2217 37.0266 53.2944 37.2732 53.4539 37.6653C53.6461 38.1321 53.8182 38.5496 54.1653 38.9224C54.5743 38.9661 54.5743 38.9661 54.9504 38.9224C54.9504 38.6638 54.9504 38.4052 54.9504 38.1388C54.864 38.1388 54.7777 38.1388 54.6887 38.1388C54.659 38.0364 54.6293 37.934 54.5987 37.8286C54.3804 37.3925 54.2169 37.3933 53.7728 37.2245C53.1929 36.6133 53.0533 36.0631 53.0533 35.2219C53.138 34.7706 53.3375 34.4647 53.5766 34.0735C54.152 33.0968 54.1308 32.3199 54.0345 31.2163C54.1209 31.1732 54.2072 31.1301 54.2962 31.0857C54.603 31.9854 54.7642 32.7276 54.3529 33.6204C54.2696 33.7801 54.1853 33.9393 54.0999 34.098C53.7292 34.7877 53.487 35.2614 53.642 36.049C53.906 36.5871 54.2537 36.9178 54.705 37.298C55.3781 37.8686 55.3781 37.8686 55.4737 38.4C55.418 39.1086 55.418 39.1086 55.0812 39.4449C54.5304 39.5189 54.2463 39.4927 53.7647 39.2082C53.4083 38.8805 53.2263 38.5122 53.0124 38.0816C52.6709 37.4097 52.3204 37.1124 51.678 36.7362C51.2302 36.4525 51.0715 36.1133 50.9527 35.6118C50.8963 35.2758 50.8787 34.9679 50.8796 34.6276C50.8797 34.5048 50.8797 34.3819 50.8797 34.2554C50.8803 34.1244 50.881 33.9935 50.8817 33.8587C50.8819 33.7233 50.8821 33.588 50.8823 33.4486C50.883 33.0174 50.8847 32.5863 50.8863 32.1551C50.887 31.8623 50.8876 31.5696 50.8881 31.2768C50.8895 30.56 50.8917 29.8433 50.8945 29.1265C51.1562 28.9959 51.1562 28.9959 51.287 28.9959Z" fill="#00C3FF"/>
<path d="M38.7269 28.7347C39.2733 29.2802 39.1416 30.2266 39.146 30.9627C39.1468 31.0604 39.1475 31.1581 39.1483 31.2588C39.1495 31.4642 39.1504 31.6695 39.1509 31.8749C39.1521 32.1864 39.1562 32.4979 39.1603 32.8094C39.1612 33.0102 39.1619 33.211 39.1624 33.4117C39.164 33.5035 39.1656 33.5952 39.1673 33.6897C39.1642 34.3774 38.9959 34.8935 38.7269 35.5265C38.464 35.4911 38.2027 35.4444 37.9419 35.3959C37.822 35.3749 37.7021 35.3538 37.5786 35.3321C37.1985 35.2509 36.8577 35.1627 36.5027 35.0041C36.3331 34.6507 36.2921 34.4636 36.2411 34.0898C35.9076 32.8584 35.3861 31.9388 34.2954 31.2352C33.2128 30.6556 32.2456 30.3944 31.0414 30.7148C30.0162 31.0955 29.4234 31.718 28.85 32.6306C28.6527 32.9143 28.6527 32.9143 28.2602 33.1755C28.4107 32.2992 28.6492 31.827 29.3069 31.2163C29.4067 31.1032 29.5066 30.99 29.6094 30.8735C30.4628 30.1206 31.6013 29.9807 32.7086 30.0408C33.7364 30.2364 34.6158 30.5516 35.3252 31.3469C35.4359 31.4681 35.5465 31.5894 35.6605 31.7143C36.3737 32.5965 36.6089 33.5012 36.7644 34.6122C36.9742 34.6562 37.1841 34.6997 37.3941 34.7428C37.5109 34.7671 37.6278 34.7913 37.7482 34.8163C38.0823 34.8848 38.0823 34.8848 38.4653 34.8735C38.7433 34.0826 38.7622 33.3642 38.7515 32.5306C38.7514 32.4064 38.7513 32.2823 38.7512 32.1543C38.7468 31.4376 38.6936 30.7505 38.5961 30.0408C38.5856 29.826 38.579 29.6109 38.5797 29.3959C38.5792 29.2487 38.5792 29.2487 38.5787 29.0985C38.5961 28.8653 38.5961 28.8653 38.7269 28.7347Z" fill="#00C3FF"/>
<path d="M41.2128 34.4816C41.2991 34.4816 41.3855 34.4816 41.4744 34.4816C41.5608 34.7402 41.6471 34.9989 41.7361 35.2653C41.8309 35.2291 41.9257 35.1929 42.0233 35.1556C42.2131 35.0846 42.2131 35.0846 42.4066 35.0122C42.5311 34.9653 42.6556 34.9183 42.7838 34.8699C44.8699 34.1929 47.2368 34.5468 49.1674 35.4853C51.1269 36.491 52.4054 38.0551 53.4621 39.9592C53.5318 40.082 53.5318 40.082 53.603 40.2072C53.8063 40.5901 53.9088 40.8294 53.8659 41.2658C53.8352 41.3545 53.8045 41.4433 53.7729 41.5347C53.4641 41.2265 53.332 40.9317 53.1432 40.5388C52.9 40.0425 52.6501 39.5663 52.35 39.102C52.072 38.6612 52.072 38.6612 52.072 38.4C51.9857 38.4 51.8993 38.4 51.8103 38.4C51.5099 38.0654 51.4178 37.9455 51.4178 37.4857C51.3418 37.4733 51.2657 37.4608 51.1873 37.448C50.8317 37.3352 50.6631 37.172 50.3957 36.9143C49.9292 36.4888 49.5251 36.2587 48.932 36.049C48.932 35.9628 48.932 35.8766 48.932 35.7878C48.8375 35.7702 48.7431 35.7527 48.6458 35.7347C48.1859 35.6378 47.7448 35.499 47.2966 35.3592C45.8515 34.9444 44.2356 35.0535 42.7828 35.3959C42.561 35.5201 42.3421 35.6498 42.1286 35.7878C41.7606 35.8775 41.7606 35.8775 41.4744 35.9184C41.4744 35.8322 41.4744 35.746 41.4744 35.6571C41.3881 35.6571 41.3017 35.6571 41.2128 35.6571C41.2128 35.2692 41.2128 34.8813 41.2128 34.4816Z" fill="#00C3FF"/>
<path d="M36.1378 41.0556C36.2151 41.0844 36.2923 41.1132 36.3719 41.1429C35.6454 42.1401 34.6554 42.8329 33.6535 43.5332C33.3512 43.7302 33.3512 43.7302 33.2319 44.0163C33.1023 44.0163 32.9728 44.0163 32.8394 44.0163C32.7962 44.1456 32.753 44.2749 32.7085 44.4082C32.4493 44.5023 32.1872 44.5884 31.9235 44.6694C31.8075 44.7394 31.6915 44.8095 31.5719 44.8816C31.2694 45.0612 31.2694 45.0612 30.8769 45.0612C30.8769 45.1905 30.8769 45.3198 30.8769 45.4531C30.9632 45.4531 31.0496 45.4531 31.1385 45.4531C31.1385 45.5824 31.1385 45.7117 31.1385 45.8449C31.2478 45.8692 31.2478 45.8692 31.3593 45.8939C31.6619 45.9755 31.6619 45.9755 31.9654 46.1092C32.9001 46.4492 34.1346 46.2941 35.0635 45.9755C35.8352 45.5767 35.8352 45.5767 36.3719 44.9306C36.5014 44.9737 36.6309 45.0168 36.7644 45.0612C36.1001 45.9281 35.5078 46.5464 34.4094 46.7592C33.2546 46.8851 31.9896 46.9461 31.0077 46.2367C30.6403 45.87 30.4301 45.5776 30.3535 45.0612C30.7682 44.7044 31.1778 44.4398 31.67 44.201C33.0111 43.5486 34.0504 42.6312 35.1305 41.6184C35.2217 41.5342 35.313 41.45 35.407 41.3633C35.4815 41.291 35.5561 41.2188 35.6329 41.1444C35.8486 41.0123 35.8486 41.0123 36.1378 41.0556Z" fill="#00C3FF"/>
<path d="M54.4107 19.274C54.8084 19.355 54.9814 19.527 55.212 19.8531C55.4154 20.2592 55.3803 20.5796 55.3429 21.0286C55.1548 21.4694 55.1548 21.4694 54.8195 21.8123C54.3192 21.9681 53.8593 22.0183 53.3599 21.8449C53.0624 21.6436 52.9737 21.4971 52.857 21.1592C52.8261 20.5849 52.9316 20.0984 53.1841 19.5837C53.6058 19.2574 53.8875 19.2456 54.4107 19.274Z" fill="#00C3FF"/>
<path d="M42.6519 17.2408C43.2511 17.3196 43.7318 17.5668 44.2547 17.8531C44.3412 17.9001 44.4278 17.9472 44.517 17.9956C46.3947 19.0273 46.3947 19.0273 46.9695 19.9837C47.2086 20.262 47.4544 20.5326 47.7034 20.8021C47.8853 21.0286 47.8853 21.0286 47.8853 21.2898C48.6203 21.3569 48.6203 21.3569 49.2673 21.0694C49.4841 20.7804 49.4841 20.7804 49.4553 20.4408C49.2901 20.0285 49.1598 19.8604 48.8012 19.5919C48.4152 19.4364 48.024 19.3128 47.6236 19.2C47.6236 19.1138 47.6236 19.0276 47.6236 18.9388C47.9575 18.8138 48.1945 18.7808 48.5359 18.8929C49.1083 19.1599 49.5228 19.4257 49.8478 19.9837C49.9853 20.4961 50.0313 20.7735 49.8233 21.2653C49.4272 21.7426 49.1824 21.7966 48.564 21.8776C48.0065 21.8591 47.7276 21.6635 47.3313 21.2857C47.0737 20.999 46.843 20.6986 46.6097 20.3919C45.5809 19.0801 44.111 18.3718 42.6519 17.6327C42.6519 17.5034 42.6519 17.3741 42.6519 17.2408Z" fill="#00C3FF"/>
<path d="M54.0345 45.4531C54.1209 45.4531 54.2072 45.4531 54.2962 45.4531C53.9645 47.6603 53.0653 49.5875 51.2819 50.9903C49.7645 52.1045 47.9949 53.1214 46.0536 53.0286C45.9673 52.9855 45.8809 52.9424 45.792 52.898C45.792 52.8118 45.792 52.7256 45.792 52.6367C45.9309 52.613 46.0699 52.5893 46.2131 52.5648C47.4417 52.349 48.5091 52.1268 49.5862 51.4612C49.8067 51.3574 50.0276 51.2541 50.2485 51.151C50.7806 50.8885 51.0814 50.6527 51.4178 50.1551C51.5177 50.0581 51.6175 49.9611 51.7204 49.8612C52.5361 49.028 53.0713 48.2771 53.3803 47.151C53.4667 46.933 53.5538 46.7152 53.642 46.498C53.7108 46.2919 53.7108 46.2919 53.781 46.0816C53.9037 45.7143 53.9037 45.7143 54.0345 45.4531Z" fill="#00C3FF"/>
<path d="M8.49195 27.4959C8.76589 27.5592 8.76589 27.5592 9.10115 27.8367C9.32549 28.2846 9.38008 28.5021 9.28923 28.9959C8.96456 29.5164 8.7658 29.7376 8.17713 29.9265C7.62413 29.9068 7.44522 29.7784 7.06504 29.3877C6.85972 28.9778 6.88815 28.6643 6.93421 28.2122C7.35483 27.5756 7.76215 27.4522 8.49195 27.4959Z" fill="#00C3FF"/>
<path d="M16.3543 25.4694C16.4406 25.4694 16.527 25.4694 16.6159 25.4694C16.5978 25.8803 16.5784 26.2912 16.5587 26.702C16.551 26.8779 16.551 26.8779 16.5431 27.0574C16.5376 27.1689 16.5321 27.2805 16.5265 27.3954C16.5217 27.4987 16.5169 27.6019 16.512 27.7084C16.4851 27.951 16.4851 27.951 16.3543 28.0816C16.3377 28.4054 16.3296 28.7254 16.3277 29.0495C16.3269 29.1487 16.3262 29.2479 16.3254 29.3501C16.3242 29.562 16.3233 29.7738 16.3228 29.9856C16.3216 30.3021 16.3175 30.6185 16.3134 30.9349C16.2999 32.9081 16.6385 34.6996 17.2701 36.5714C17.3133 36.7007 17.3565 36.83 17.4009 36.9632C17.3146 37.0925 17.2282 37.2219 17.1393 37.3551C16.7571 36.592 16.4952 35.8229 16.2643 35.0041C16.2363 34.9065 16.2083 34.809 16.1794 34.7085C15.4309 31.9798 15.459 28.1507 16.3543 25.4694Z" fill="#00C3FF"/>
<path d="M11.2518 52.2449C11.6361 52.4408 11.6361 52.4408 11.9059 52.7673C12.055 53.2451 12.0895 53.6541 11.9305 54.1306C11.7751 54.3347 11.7751 54.3347 11.5134 54.4653C10.9224 54.528 10.3908 54.5668 9.86164 54.2775C9.59167 53.7753 9.58346 53.3243 9.68174 52.7673C10.044 52.1496 10.588 52.1186 11.2518 52.2449Z" fill="#00C3FF"/>
<path d="M39.7736 28.3428C39.86 28.3428 39.9463 28.3428 40.0353 28.3428C41.3896 31.7514 41.3896 31.7514 41.0819 33.1755C40.8418 32.8159 40.7669 32.6378 40.6802 32.2311C40.6575 32.1263 40.6347 32.0215 40.6113 31.9135C40.5885 31.8046 40.5657 31.6958 40.5423 31.5837C40.5185 31.4733 40.4947 31.3629 40.4702 31.2492C40.4117 30.9772 40.3542 30.7049 40.2969 30.4326C40.299 30.512 40.3011 30.5914 40.3032 30.6732C40.3913 34.6142 40.3913 34.6142 39.6428 36.3102C39.5564 36.224 39.4701 36.1378 39.3811 36.049C39.4193 35.4967 39.4997 34.9568 39.5799 34.4092C39.8248 32.6326 39.8229 30.9014 39.6779 29.115C39.6614 28.9015 39.6514 28.6875 39.6428 28.4734C39.6859 28.4303 39.7291 28.3872 39.7736 28.3428Z" fill="#00C3FF"/>
<path d="M21.5876 17.8939C21.674 17.8939 21.7603 17.8939 21.8493 17.8939C21.6887 18.8314 21.4912 19.6295 20.9907 20.449C20.778 20.809 20.669 21.1527 20.541 21.551C20.455 21.7692 20.3677 21.9869 20.2793 22.2041C19.9824 22.9407 19.7448 23.6565 19.5781 24.4347C19.4632 24.9578 19.3396 25.4788 19.2163 26C19.1923 26.1012 19.1684 26.2025 19.1438 26.3068C19.0862 26.5501 19.0286 26.7934 18.971 27.0367C18.8414 27.0367 18.7119 27.0367 18.5785 27.0367C18.8227 24.4792 19.7137 19.7646 21.5876 17.8939Z" fill="#00C3FF"/>
<path d="M11.6892 27.4689C11.7607 27.4987 11.8322 27.5285 11.9059 27.5592C11.5869 27.9174 11.2603 28.1651 10.8511 28.4081C10.2965 28.7363 10.2965 28.7363 9.9434 29.2571C9.80347 30.0572 9.96158 30.5897 10.4161 31.252C10.5931 31.4834 10.5931 31.4834 10.8158 31.6786C10.9901 31.8694 10.9901 31.8694 10.9901 32.2612C11.1156 32.2814 11.1156 32.2814 11.2436 32.302C11.3771 32.3465 11.3771 32.3465 11.5134 32.3918C11.5566 32.5211 11.5998 32.6504 11.6442 32.7837C11.7306 32.7837 11.8169 32.7837 11.9059 32.7837C12.2919 33.3858 12.5012 33.7457 12.4292 34.4816C12.2997 34.4816 12.1702 34.4816 12.0367 34.4816C11.9639 34.2553 11.9639 34.2553 11.8896 34.0245C11.5551 33.1422 10.9837 32.502 10.3114 31.853C9.67404 31.2241 9.40315 30.7488 9.36282 29.8449C9.38776 29.1869 9.46854 28.8279 9.9434 28.3428C11.1869 27.4028 11.1869 27.4028 11.6892 27.4689Z" fill="#00C3FF"/>
<path d="M32.7085 42.449C32.8381 42.4921 32.9676 42.5352 33.101 42.5796C32.2417 43.8092 30.8321 44.2049 29.4065 44.4607C29.1111 44.5001 28.8195 44.5229 28.5218 44.5388C28.3972 44.5457 28.2726 44.5526 28.1442 44.5597C26.7979 44.5977 25.5033 44.3562 24.2043 44.0163C24.1611 43.8439 24.118 43.6715 24.0735 43.4939C24.1811 43.5206 24.2887 43.5474 24.3995 43.575C25.2954 43.7908 26.1617 43.9712 27.0827 44.0163C27.3045 44.0289 27.3045 44.0289 27.5309 44.0418C28.9949 44.0874 30.4036 43.8963 31.6619 43.102C31.7509 43.0832 31.84 43.0643 31.9317 43.0449C32.2891 42.9413 32.4634 42.7199 32.7085 42.449Z" fill="#00C3FF"/>
<path d="M58.6137 26.1224C58.7432 26.2086 58.8728 26.2948 59.0062 26.3837C58.9644 26.843 58.9248 27.1065 58.6301 27.4694C58.1433 27.8553 57.7485 27.8219 57.1473 27.7985C56.1094 27.7631 55.2406 27.7405 54.427 28.4735C54.108 28.8147 53.9086 29.0343 53.8981 29.5117C53.9283 29.7804 53.9768 30.038 54.0345 30.302C54.0588 30.4529 54.0831 30.6037 54.1081 30.7592C54.127 30.8669 54.1459 30.9747 54.1654 31.0857C54.0358 31.0857 53.9063 31.0857 53.7729 31.0857C53.4234 30.2572 53.2108 29.6143 53.5194 28.7265C54.0597 27.9087 54.6383 27.503 55.6045 27.2979C56.111 27.2809 56.6157 27.3102 57.1211 27.3426C57.4134 27.3521 57.6724 27.3539 57.9595 27.2979C58.3374 26.9413 58.5372 26.6381 58.6137 26.1224Z" fill="#00C3FF"/>
<path d="M17.6626 41.7959C17.7058 41.8821 17.749 41.9683 17.7935 42.0571C17.8742 42.0758 17.955 42.0945 18.0382 42.1138C18.3782 42.204 18.4881 42.3257 18.718 42.5877C18.8282 42.7106 18.8282 42.7106 18.9406 42.836C19.0181 42.9238 19.0956 43.0116 19.1754 43.102C20.4255 44.4709 21.7565 45.4667 23.3356 46.4307C23.4459 46.4995 23.5561 46.5683 23.6698 46.6393C23.7695 46.7002 23.8693 46.7611 23.9721 46.8239C24.2436 47.0536 24.2885 47.1964 24.3352 47.5428C24.2056 47.5428 24.0761 47.5428 23.9427 47.5428C23.9427 47.4566 23.9427 47.3704 23.9427 47.2816C23.5541 47.217 23.5541 47.217 23.1577 47.151C23.1577 47.0217 23.1577 46.8924 23.1577 46.7592C23.0659 46.7241 22.9742 46.6891 22.8796 46.653C22.4819 46.489 22.1015 46.3017 21.7185 46.1061C21.7185 46.0199 21.7185 45.9337 21.7185 45.8449C21.6254 45.8147 21.5323 45.7846 21.4364 45.7536C20.9904 45.5499 20.7023 45.2895 20.3447 44.9551C20.2246 44.8438 20.1046 44.7325 19.9808 44.6178C19.7439 44.3912 19.5098 44.1616 19.2786 43.9291C19.046 43.6987 18.8211 43.4957 18.5621 43.2979C18.0611 42.863 17.7839 42.4495 17.6626 41.7959Z" fill="#00C3FF"/>
<path d="M39.9044 38.5306C39.7749 38.5737 39.6454 38.6168 39.5119 38.6612C39.4687 38.7905 39.4256 38.9198 39.3811 39.0531C39.2947 39.0531 39.2084 39.0531 39.1194 39.0531C39.0296 39.2259 38.9431 39.4004 38.8578 39.5755C38.8065 39.6752 38.7552 39.7749 38.7024 39.8776C38.5248 40.4639 38.6353 40.9461 38.8905 41.4939C39.2213 41.9303 39.4887 42.2718 40.0547 42.3643C40.6887 42.3874 41.0811 42.3071 41.6053 41.9265C41.6916 41.9265 41.778 41.9265 41.8669 41.9265C41.902 41.843 41.9371 41.7595 41.9732 41.6735C42.1286 41.4041 42.1286 41.4041 42.5211 41.2735C42.4425 41.9539 41.936 42.4077 41.4417 42.8327C40.777 43.0891 40.1534 42.9253 39.4956 42.702C38.8181 42.2462 38.2852 41.8226 38.1228 40.9903C38.0919 40.2 38.1348 39.5709 38.6702 38.9622C39.3488 38.3457 39.3488 38.3457 39.9044 38.5306Z" fill="#00C3FF"/>
<path d="M25.6435 10.5796C25.773 10.5796 25.9025 10.5796 26.036 10.5796C25.9083 11.2678 25.4913 11.7943 25.0874 12.351C23.9358 13.9876 23.0155 15.7898 22.2418 17.6327C22.1555 17.5895 22.0691 17.5464 21.9801 17.502C22.0327 16.6179 22.391 15.9559 22.806 15.1837C22.8754 15.0527 22.9448 14.9218 23.0163 14.7868C23.6978 13.5189 24.4483 12.2968 25.251 11.102C25.3223 10.9934 25.3937 10.8848 25.4672 10.773C25.5254 10.7091 25.5835 10.6453 25.6435 10.5796Z" fill="#00C3FF"/>
<path d="M56.2587 39.1837C56.5694 39.3959 56.5694 39.3959 56.782 39.7061C56.8621 40.1857 56.8457 40.3968 56.5694 40.8C56.1678 41.0743 55.9518 41.0819 55.4737 41.0123C55.0962 40.8188 54.9796 40.7017 54.8359 40.3021C54.8172 39.9201 54.8652 39.7576 55.0812 39.4449C55.538 39.1409 55.7212 39.118 56.2587 39.1837Z" fill="#00C3FF"/>
<path d="M38.4652 47.0204C38.9816 47.1922 39.0052 47.3772 39.2502 47.853C39.7655 48.7756 40.4384 49.445 41.2128 50.1551C41.065 49.8524 40.9132 49.5738 40.7303 49.2898C40.6736 49.1874 40.617 49.085 40.5586 48.9796C40.6018 48.8934 40.6449 48.8072 40.6894 48.7183C40.7758 48.7183 40.8621 48.7183 40.9511 48.7183C41.4744 49.4252 41.4744 49.4252 41.4744 49.7632C41.604 49.7632 41.7335 49.7632 41.8669 49.7632C42.145 50.6449 42.145 50.6449 41.9978 50.9388C41.3378 50.8806 41.0238 50.5979 40.5586 50.1551C40.5586 50.0689 40.5586 49.9827 40.5586 49.8939C40.4475 49.8845 40.4475 49.8845 40.3342 49.875C39.8857 49.7074 39.7169 49.4029 39.4383 49.0204C39.3383 48.8852 39.2383 48.75 39.1353 48.6107C38.4652 47.6092 38.4652 47.6092 38.4652 47.0204Z" fill="#00C3FF"/>
<path d="M21.9801 48.3265C22.3687 48.3265 22.7573 48.3265 23.1576 48.3265C23.2008 48.4558 23.244 48.5852 23.2885 48.7184C23.6452 48.7914 24.0021 48.8617 24.3597 48.9306C24.5106 48.9619 24.5106 48.9619 24.6645 48.9939C25.2474 49.1038 25.6258 49.1499 26.1668 48.849C26.1237 49.0645 26.0805 49.28 26.036 49.502C24.8545 49.761 23.7267 49.2894 22.6343 48.849C22.7352 48.9089 22.836 48.9689 22.9399 49.0306C23.0711 49.1108 23.2023 49.1909 23.3375 49.2735C23.4681 49.3523 23.5986 49.4311 23.7331 49.5123C24.067 49.7585 24.1945 49.9033 24.3351 50.2857C24.2056 50.415 24.0761 50.5443 23.9426 50.6776C23.9346 50.5994 23.9265 50.5213 23.9181 50.4408C23.7267 49.9263 23.2246 49.794 22.7488 49.5755C22.3638 49.3666 22.1883 49.2299 21.9801 48.849C21.9801 48.6766 21.9801 48.5042 21.9801 48.3265Z" fill="#00C3FF"/>
<path d="M54.1735 19.6408C54.5579 19.7224 54.5579 19.7224 54.8114 19.9265C55.0155 20.394 54.9564 20.6723 54.8195 21.1592C54.5006 21.5428 54.5006 21.5428 54.1654 21.8122C54.079 21.8122 53.9927 21.8122 53.9037 21.8122C53.8173 21.6398 53.731 21.4674 53.642 21.2898C53.5557 21.2898 53.4693 21.2898 53.3804 21.2898C53.2328 20.7742 53.2245 20.5602 53.4539 20.0653C53.7729 19.7224 53.7729 19.7224 54.1735 19.6408Z" fill="#00C3FF"/>
<path d="M29.176 38.9224C29.3487 38.9655 29.5214 39.0086 29.6994 39.053C29.6245 39.4863 29.4939 39.6704 29.176 39.9673C29.3784 40.1466 29.5833 40.3229 29.7893 40.4979C29.9031 40.5964 30.017 40.6949 30.1343 40.7964C30.4688 41.0509 30.4688 41.0509 30.8549 40.9791C30.9485 40.9469 31.0421 40.9147 31.1385 40.8816C31.0576 40.8304 30.9766 40.7792 30.8932 40.7265C30.5727 40.4536 30.4819 40.2319 30.3535 39.8367C30.7896 40.0544 31.2258 40.2721 31.6619 40.4898C31.6373 40.7918 31.6373 40.7918 31.531 41.1428C31.2006 41.4177 30.999 41.5347 30.5661 41.5347C30.093 41.3547 29.6794 41.095 29.3069 40.751C29.3069 40.6648 29.3069 40.5786 29.3069 40.4898C29.2232 40.4574 29.1395 40.4251 29.0534 40.3918C28.7835 40.2285 28.7835 40.2285 28.6527 40C28.6527 39.5416 28.9081 39.279 29.176 38.9224Z" fill="#00C3FF"/>
<path d="M29.961 5.87756C30.5142 6.06163 30.6308 6.44998 30.883 6.94083C30.9321 7.03476 30.9813 7.1287 31.0319 7.22548C31.1354 7.42454 31.2383 7.62395 31.3406 7.82367C31.4974 8.12876 31.6574 8.43199 31.8178 8.73522C31.918 8.92882 32.018 9.12252 32.1178 9.31634C32.1658 9.40684 32.2139 9.49734 32.2635 9.59058C32.4655 9.99119 32.5837 10.2552 32.541 10.7075C32.51 10.7946 32.4789 10.8817 32.4469 10.9714C32.3605 10.8852 32.2742 10.799 32.1852 10.7102C32.1852 10.5809 32.1852 10.4516 32.1852 10.3184C32.0989 10.3184 32.0125 10.3184 31.9235 10.3184C31.8809 10.2222 31.8382 10.1261 31.7942 10.0271C31.7371 9.8996 31.6799 9.77215 31.621 9.64083C31.5648 9.51506 31.5087 9.38929 31.4508 9.25971C31.2784 8.90041 31.0844 8.56848 30.8769 8.22858C30.4936 7.50302 30.1438 6.76619 29.8302 6.00818C29.8734 5.96507 29.9166 5.92197 29.961 5.87756Z" fill="#00C3FF"/>
<path d="M7.3267 27.6898C7.41305 27.6898 7.4994 27.6898 7.58837 27.6898C7.63154 27.776 7.67472 27.8622 7.7192 27.951C8.06461 27.9079 8.41001 27.8648 8.76588 27.8204C8.7765 28.0298 8.7841 28.2394 8.79041 28.449C8.79496 28.5657 8.79952 28.6824 8.80421 28.8026C8.76588 29.1266 8.76588 29.1266 8.6008 29.3648C8.37337 29.5184 8.37337 29.5184 7.85004 29.5184C7.85004 29.4322 7.85004 29.346 7.85004 29.2572C7.67734 29.2572 7.50464 29.2572 7.3267 29.2572C7.3267 28.9123 7.3267 28.5675 7.3267 28.2123C7.24035 28.2123 7.154 28.2123 7.06503 28.2123C7.15138 28.0399 7.23773 27.8675 7.3267 27.6898Z" fill="#00C3FF"/>
<path d="M37.5412 35.4204C37.9703 35.6739 38.1286 35.863 38.3344 36.3102C38.1185 36.224 37.9027 36.1378 37.6802 36.049C37.6802 35.9628 37.6802 35.8766 37.6802 35.7878C37.3612 35.7772 37.0426 35.7694 36.7235 35.7633C36.6332 35.76 36.5429 35.7567 36.4498 35.7533C35.9255 35.7366 35.9255 35.7366 35.4806 35.9796C35.4037 36.0786 35.4037 36.0786 35.3252 36.1796C34.9736 36.2694 34.9736 36.2694 34.6711 36.3102C34.6576 36.383 34.6441 36.4557 34.6302 36.5306C34.523 36.8904 34.3494 37.1706 34.1477 37.4857C34.0614 37.3133 33.975 37.1409 33.886 36.9633C34.2892 36.2497 34.6518 35.6653 35.429 35.3419C36.139 35.1537 36.8497 35.167 37.5412 35.4204Z" fill="#00C3FF"/>
<path d="M35.4561 14.3674C35.7798 14.629 35.8738 14.8205 36.0367 15.2164C36.2512 15.6961 36.3148 15.8225 36.7644 16.0653C37.1423 16.1073 37.4982 16.1321 37.8765 16.1388C39.0717 16.1661 39.0717 16.1661 39.5119 16.4572C39.4688 16.5434 39.4256 16.6296 39.3811 16.7184C39.0076 16.7034 38.6342 16.6868 38.2608 16.6694C38.1562 16.6654 38.0515 16.6613 37.9437 16.6572C36.364 16.5799 36.364 16.5799 35.8077 16.0245C35.2991 15.216 35.2991 15.216 35.3743 14.6531C35.4013 14.5588 35.4283 14.4645 35.4561 14.3674Z" fill="#00C3FF"/>
<path d="M39.5119 50.2857C39.7572 50.3184 39.7572 50.3184 40.0353 50.4163C40.0736 50.499 40.1118 50.5817 40.1513 50.6668C40.3297 51 40.4693 51.0609 40.8121 51.2082C41.106 51.3359 41.3137 51.4309 41.5399 51.6597C41.7702 51.8867 41.9629 51.9618 42.2676 52.0653C42.5376 52.1587 42.7887 52.2478 43.0445 52.3755C43.2455 52.4048 43.4474 52.4288 43.6496 52.449C43.81 52.4654 43.81 52.4654 43.9736 52.4821C44.0965 52.494 44.0965 52.494 44.222 52.5061C44.222 52.5923 44.222 52.6785 44.222 52.7673C42.7162 53.093 41.5851 52.3495 40.3332 51.5714C39.8866 51.2105 39.6916 50.8237 39.5119 50.2857Z" fill="#00C3FF"/>
<path d="M10.3359 52.6367C10.8664 52.5804 11.062 52.5975 11.5134 52.8979C11.575 53.2562 11.5367 53.5765 11.5134 53.9428C11.3826 54.0734 11.3826 54.0734 10.941 54.0979C10.4667 54.0734 10.4667 54.0734 10.0742 53.8122C10.0178 53.2827 10.035 53.0874 10.3359 52.6367Z" fill="#00C3FF"/>
<path d="M20.8026 38.5306C20.92 38.5891 21.0374 38.6475 21.1583 38.7077C22.1458 39.1885 23.1179 39.5876 24.179 39.8777C24.6334 40.0062 24.957 40.1087 25.251 40.4898C24.7394 40.6601 24.4033 40.5184 23.91 40.3592C23.8185 40.3303 23.727 40.3014 23.6327 40.2716C22.6501 39.9491 21.7269 39.5131 20.8026 39.0531C20.8026 38.8807 20.8026 38.7083 20.8026 38.5306Z" fill="#00C3FF"/>
<path d="M37.9419 18.0245C40.7862 18.6267 40.7862 18.6267 41.7361 19.2C41.9083 19.4816 41.9083 19.4816 41.9978 19.7224C41.674 19.6578 41.674 19.6578 41.3436 19.5918C41.3436 19.5056 41.3436 19.4194 41.3436 19.3306C40.3026 19.1408 40.3026 19.1408 39.2503 19.0694C39.1329 18.9764 39.1329 18.9764 39.0131 18.8816C38.6603 18.63 38.3679 18.5953 37.9419 18.5469C37.9419 18.3745 37.9419 18.2021 37.9419 18.0245Z" fill="#00C3FF"/>
<path d="M34.1477 14.6286C34.1909 14.7148 34.2341 14.801 34.2786 14.8898C34.3649 14.8898 34.4513 14.8898 34.5402 14.8898C35.5482 17.244 35.5482 17.244 35.9222 18.2123C35.9628 18.3172 36.0034 18.4221 36.0453 18.5301C36.1188 18.845 36.0837 19.028 35.9794 19.3306C35.7831 19.1755 35.7831 19.1755 35.5869 18.9388C35.5624 18.5878 35.5624 18.5878 35.5869 18.2857C35.5005 18.2426 35.4142 18.1995 35.3252 18.1551C35.0556 17.6168 34.8776 17.1935 34.9327 16.5878C34.8464 16.5878 34.76 16.5878 34.6711 16.5878C34.5578 16.3354 34.4464 16.0822 34.3358 15.8286C34.2736 15.6877 34.2113 15.5468 34.1472 15.4016C34.0169 15.0204 34.0169 15.0204 34.1477 14.6286Z" fill="#00C3FF"/>
<path d="M43.4369 9.53466C43.5678 9.66528 43.5678 9.66528 43.6087 10.0326C43.5678 10.4489 43.5678 10.4489 43.347 10.7592C42.9892 11.0102 42.8186 11.0389 42.3903 10.9714C42.3039 10.8852 42.2176 10.799 42.1286 10.7102C42.1464 10.222 42.1604 9.90883 42.4884 9.53466C42.8618 9.36898 43.0534 9.41049 43.4369 9.53466Z" fill="#00C3FF"/>
<path d="M36.1102 48.3265C36.175 48.5851 36.175 48.5851 36.2411 48.849C36.1115 48.8059 35.982 48.7628 35.8486 48.7184C35.5489 48.7059 35.249 48.7014 34.9491 48.702C34.7108 48.7015 34.7108 48.7015 34.4677 48.701C34.0353 48.7056 34.0353 48.7056 33.6913 48.7842C33.2589 48.8694 32.8463 48.8613 32.406 48.8571C32.2419 48.856 32.0778 48.8548 31.9087 48.8536C31.7841 48.8521 31.6594 48.8505 31.531 48.849C31.5742 48.7628 31.6174 48.6766 31.6619 48.5878C32.1506 48.4462 32.6568 48.3779 33.1583 48.2939C33.2965 48.268 33.4347 48.242 33.5771 48.2153C34.4864 48.0609 35.2218 48.073 36.1102 48.3265Z" fill="#00C3FF"/>
<path d="M49.717 24.1633C49.8033 24.1633 49.8897 24.1633 49.9787 24.1633C49.9915 24.2518 50.0043 24.3404 50.0175 24.4316C50.1601 25.3174 50.4077 26.0851 50.7637 26.9061C51.0236 27.5362 51.0287 27.934 50.8945 28.6041C50.5219 28.2321 50.4508 27.7841 50.3139 27.2898C50.1379 26.6668 49.9601 26.0519 49.7334 25.4449C49.5846 24.9416 49.5757 24.6632 49.717 24.1633Z" fill="#00C3FF"/>
<path d="M37.9419 43.1021C38.4475 43.1561 38.7436 43.432 39.1194 43.7551C38.8823 43.8367 38.8823 43.8367 38.5961 43.8857C38.4665 43.7995 38.337 43.7133 38.2036 43.6245C38.2175 43.7461 38.2175 43.7461 38.2317 43.8701C38.273 44.237 38.3119 44.6042 38.3508 44.9714C38.3654 45.099 38.3801 45.2265 38.3952 45.3579C38.4079 45.4804 38.4205 45.6029 38.4336 45.7291C38.4459 45.842 38.4582 45.9548 38.4709 46.0711C38.4652 46.3674 38.4652 46.3674 38.2036 46.7592C37.9327 45.5808 37.6982 44.4499 37.8111 43.2327C37.8542 43.1896 37.8974 43.1465 37.9419 43.1021Z" fill="#00C3FF"/>
<path d="M52.9061 22.7429C53.2495 22.9878 53.2495 22.9878 53.364 23.4041C53.3694 23.5253 53.3748 23.6466 53.3804 23.7715C53.2508 23.7284 53.1213 23.6852 52.9879 23.6408C52.9879 23.5546 52.9879 23.4684 52.9879 23.3796C52.9015 23.3796 52.8152 23.3796 52.7262 23.3796C52.683 23.2934 52.6398 23.2072 52.5954 23.1184C51.85 22.9169 51.1825 22.9964 50.502 23.3796C50.3338 23.6436 50.3338 23.6436 50.2403 23.9021C50.154 23.7297 50.0676 23.5572 49.9787 23.3796C50.8203 22.6158 51.8191 22.3812 52.9061 22.7429Z" fill="#00C3FF"/>
<path d="M37.6802 23.6408C37.7666 23.6408 37.8529 23.6408 37.9419 23.6408C38.0518 24.1304 38.1605 24.6203 38.269 25.1102C38.3002 25.2491 38.3314 25.388 38.3635 25.5311C38.3931 25.665 38.4226 25.7988 38.453 25.9367C38.4804 26.0598 38.5078 26.183 38.536 26.3098C38.5961 26.6449 38.5961 26.6449 38.5961 27.1673C38.3395 27.0893 38.3395 27.0893 38.0727 26.9061C38.0022 26.523 38.0022 26.523 37.991 26.0653C37.9824 25.3979 37.9824 25.3979 37.6802 24.8163C37.6017 24.466 37.5785 24.1311 37.5494 23.7714C37.5926 23.7283 37.6358 23.6852 37.6802 23.6408Z" fill="#00C3FF"/>
<path d="M36.7644 45.0612C36.8508 45.0612 36.9371 45.0612 37.0261 45.0612C37.1138 45.423 37.201 45.7849 37.2878 46.1469C37.3127 46.2496 37.3377 46.3522 37.3634 46.4579C37.387 46.5568 37.4106 46.6557 37.4349 46.7576C37.4569 46.8486 37.4788 46.9396 37.5014 47.0333C37.5494 47.2816 37.5494 47.2816 37.5494 47.6735C37.6358 47.6735 37.7221 47.6735 37.8111 47.6735C37.8111 47.7597 37.8111 47.8459 37.8111 47.9347C37.7247 47.9347 37.6384 47.9347 37.5494 47.9347C37.5062 48.0209 37.4631 48.1071 37.4186 48.1959C36.6459 46.291 36.6459 46.291 36.5027 45.3224C36.5891 45.2362 36.6754 45.15 36.7644 45.0612Z" fill="#00C3FF"/>
<path d="M20.9335 41.7959C21.326 41.7959 21.326 41.7959 21.5795 42.0408C21.6685 42.1324 21.7576 42.224 21.8493 42.3183C22.1284 42.4797 22.1284 42.4797 22.3727 42.5796C22.3727 42.6658 22.3727 42.752 22.3727 42.8408C22.4779 42.861 22.4779 42.861 22.5853 42.8816C22.9778 42.995 23.3196 43.1747 23.681 43.3632C23.6378 43.4494 23.5946 43.5357 23.5502 43.6245C22.5161 43.418 21.5171 42.8346 20.8026 42.0571C20.8458 41.9709 20.889 41.8847 20.9335 41.7959Z" fill="#00C3FF"/>
<path d="M55.9561 39.6164C56.1059 39.6608 56.1059 39.6608 56.2587 39.7061C56.3405 40.0164 56.3405 40.0164 56.3895 40.3592C56.1279 40.6204 56.1279 40.6204 55.7844 40.6368C55.6819 40.6314 55.5793 40.626 55.4737 40.6204C55.4737 40.7066 55.4737 40.7928 55.4737 40.8817C55.301 40.7955 55.1283 40.7092 54.9503 40.6204C54.9503 40.5342 54.9503 40.448 54.9503 40.3592C55.0367 40.3592 55.123 40.3592 55.212 40.3592C55.212 40.2299 55.212 40.1006 55.212 39.9674C55.4497 39.6177 55.5271 39.5666 55.9561 39.6164Z" fill="#00C3FF"/>
<path d="M39.6428 45.5837C39.9044 45.7143 39.9044 45.7143 39.9872 45.9566C40.1104 46.5391 40.1969 47.0742 40.1661 47.6735C40.2525 47.6735 40.3388 47.6735 40.4278 47.6735C40.5141 47.9321 40.6005 48.1907 40.6894 48.4571C40.4457 48.4337 40.4457 48.4337 40.1661 48.3265C39.7785 47.6164 39.5624 46.7811 39.5119 45.9755C39.5551 45.8462 39.5983 45.7169 39.6428 45.5837Z" fill="#00C3FF"/>
<path d="M43.3061 20.1143C43.9998 20.3828 44.5592 20.6876 45.1378 21.1592C45.1378 21.2885 45.1378 21.4178 45.1378 21.551C45.0083 21.551 44.8787 21.551 44.7453 21.551C44.7453 21.4648 44.7453 21.3786 44.7453 21.2898C44.6589 21.2574 44.5726 21.2251 44.4836 21.1918C43.9912 20.987 43.5192 20.7484 43.0444 20.5061C43.1308 20.3768 43.2171 20.2475 43.3061 20.1143Z" fill="#00C3FF"/>
<path d="M29.961 38.4C30.3676 38.4545 30.7735 38.5126 31.1794 38.5715C31.2947 38.5869 31.41 38.6023 31.5287 38.6181C31.6951 38.6428 31.6951 38.6428 31.8648 38.6679C31.9669 38.6822 32.0689 38.6966 32.1741 38.7114C32.4917 38.8051 32.6276 38.9345 32.8394 39.1837C31.7925 39.2546 30.9467 39.0019 29.961 38.6612C29.961 38.575 29.961 38.4888 29.961 38.4Z" fill="#00C3FF"/>
<path d="M29.4377 41.9265C29.3945 42.0559 29.3513 42.1852 29.3068 42.3184C28.688 42.5616 28.0034 42.6134 27.3443 42.5796C27.3875 42.4503 27.4307 42.321 27.4752 42.1878C27.8176 42.0592 27.8176 42.0592 28.2438 41.9592C28.3838 41.9249 28.5238 41.8905 28.668 41.8551C29.0452 41.7959 29.0452 41.7959 29.4377 41.9265Z" fill="#00C3FF"/>
<path d="M15.7001 37.2245C15.8296 37.2245 15.9592 37.2245 16.0926 37.2245C16.1842 37.496 16.2738 37.7683 16.3625 38.0408C16.4125 38.1923 16.4626 38.3439 16.5142 38.5C16.6097 38.8964 16.6315 39.0736 16.4851 39.4449C16.3988 39.4449 16.3124 39.4449 16.2234 39.4449C15.9493 38.7012 15.772 38.0144 15.7001 37.2245Z" fill="#00C3FF"/>
<path d="M35.9794 19.4612C36.2928 19.5476 36.4623 19.6518 36.6249 19.9357C36.8894 20.58 36.9324 21.1203 36.8952 21.8123C36.4646 21.4686 36.3678 21.0812 36.2165 20.5633C36.1715 20.4123 36.1265 20.2612 36.0801 20.1056C35.9794 19.7225 35.9794 19.7225 35.9794 19.4612Z" fill="#00C3FF"/>
<path d="M40.4278 23.249C41.0638 23.8401 41.3732 24.3389 41.4744 25.2081C41.0931 25.0712 40.9644 24.969 40.7523 24.6163C40.6686 24.4244 40.6686 24.4244 40.5831 24.2286C40.5256 24.1006 40.4681 23.9726 40.4089 23.8408C40.3719 23.7317 40.335 23.6226 40.2969 23.5102C40.3401 23.424 40.3833 23.3378 40.4278 23.249Z" fill="#00C3FF"/>
<path d="M40.0352 16.5878C40.7722 16.5565 41.4149 16.6681 42.1286 16.849C42.1286 16.9783 42.1286 17.1076 42.1286 17.2408C41.4454 17.169 40.8163 17.0742 40.1661 16.849C40.1229 16.7628 40.0797 16.6766 40.0352 16.5878Z" fill="#00C3FF"/>
<path d="M16.6159 39.7061C17.0084 39.8367 17.0084 39.8367 17.1945 40.1214C17.2518 40.2376 17.3092 40.3538 17.3682 40.4735C17.4269 40.589 17.4856 40.7045 17.5461 40.8235C17.6626 41.1429 17.6626 41.1429 17.5318 41.5347C16.8773 41.0017 16.7364 40.5299 16.6159 39.7061Z" fill="#00C3FF"/>
<path d="M27.2135 40.098C27.7448 40.0292 28.0167 40.0115 28.4483 40.3429C28.6527 40.6204 28.6527 40.6204 28.6527 40.8816C28.1294 40.751 28.1294 40.751 27.8759 40.6857C27.5694 40.6116 27.2614 40.5499 26.9518 40.4898C27.0382 40.3605 27.1245 40.2312 27.2135 40.098Z" fill="#00C3FF"/>
<path d="M33.2319 12.4081C33.3182 12.4081 33.4046 12.4081 33.4936 12.4081C34.0272 13.4576 34.0272 13.4576 33.9842 13.9837C33.9518 14.0672 33.9194 14.1507 33.8861 14.2367C33.4925 14.0403 33.4534 13.7325 33.3101 13.3326C33.2187 13.0153 33.201 12.7365 33.2319 12.4081Z" fill="#00C3FF"/>
<path d="M38.0728 48.7184C38.529 49.0828 38.9234 49.4044 39.2503 49.8939C39.2071 49.9801 39.1639 50.0663 39.1194 50.1551C38.9899 50.1551 38.8604 50.1551 38.7269 50.1551C38.5169 49.898 38.5169 49.898 38.3099 49.5674C38.2406 49.4583 38.1713 49.3492 38.0998 49.2368C38.0477 49.1519 37.9956 49.067 37.9419 48.9796C37.9851 48.8934 38.0283 48.8072 38.0728 48.7184Z" fill="#00C3FF"/>
<path d="M57.6979 25.2081C57.6547 25.3374 57.6115 25.4668 57.567 25.6C57.2216 25.6431 56.8762 25.6862 56.5204 25.7306C56.5204 25.6013 56.5204 25.472 56.5204 25.3388C56.9072 25.1457 57.2716 25.2003 57.6979 25.2081Z" fill="#00C3FF"/>
<path d="M34.1477 40.4898C34.4068 40.576 34.6658 40.6622 34.9327 40.751C34.9327 40.9234 34.9327 41.0958 34.9327 41.2735C34.7168 41.3166 34.501 41.3597 34.2785 41.4041C34.3055 41.326 34.3325 41.2478 34.3603 41.1674C34.4495 40.8445 34.4495 40.8445 34.1477 40.4898Z" fill="#00C3FF"/>
<path d="M54.0345 25.4694C54.3367 25.5125 54.639 25.5556 54.9504 25.6C54.9504 25.7293 54.9504 25.8586 54.9504 25.9918C54.6481 25.9918 54.3459 25.9918 54.0345 25.9918C54.0345 25.8194 54.0345 25.647 54.0345 25.4694Z" fill="#00C3FF"/>
<path d="M37.0261 22.2041C37.1556 22.2041 37.2851 22.2041 37.4186 22.2041C37.6589 22.6981 37.701 22.9807 37.5494 23.5102C37.5062 23.5102 37.463 23.5102 37.4186 23.5102C37.4186 23.2947 37.4186 23.0792 37.4186 22.8572C37.289 22.8141 37.1595 22.771 37.0261 22.7266C37.0261 22.5541 37.0261 22.3817 37.0261 22.2041Z" fill="#00C3FF"/>
<path d="M19.3635 37.6163C19.751 37.6964 19.9366 37.7801 20.2793 38.0082C20.2361 38.0944 20.193 38.1806 20.1485 38.2694C19.9758 38.1832 19.8031 38.097 19.6251 38.0082C19.6251 38.1375 19.6251 38.2668 19.6251 38.4C19.5388 38.4 19.4524 38.4 19.3635 38.4C19.3635 38.1414 19.3635 37.8828 19.3635 37.6163Z" fill="#00C3FF"/>
<path d="M42.7828 9.7959C42.9123 9.7959 43.0418 9.7959 43.1753 9.7959C43.1321 10.0114 43.0889 10.2269 43.0445 10.449C42.8718 10.449 42.6991 10.449 42.5211 10.449C42.6075 10.2334 42.6938 10.0179 42.7828 9.7959Z" fill="#00C3FF"/>
<path d="M35.3252 40.098C35.9081 40.2273 35.9081 40.2273 36.5027 40.3592C36.3732 40.4238 36.3732 40.4238 36.2411 40.4898C36.1979 40.576 36.1547 40.6622 36.1102 40.751C35.8649 40.7184 35.8649 40.7184 35.5869 40.6204C35.5005 40.448 35.4142 40.2756 35.3252 40.098Z" fill="#00C3FF"/>
<path d="M42.1286 11.7551C42.215 11.7551 42.3013 11.7551 42.3903 11.7551C42.2269 12.2069 42.0403 12.558 41.7361 12.9306C41.8342 12.049 41.8342 12.049 42.1286 11.7551Z" fill="#00C3FF"/>
<path d="M49.3245 51.9836C49.134 52.0713 48.9431 52.1583 48.7521 52.2449C48.5927 52.3176 48.5927 52.3176 48.4301 52.3918C48.147 52.5061 48.147 52.5061 47.8853 52.5061C47.9285 52.3768 47.9717 52.2475 48.0161 52.1143C48.8218 51.8164 48.8218 51.8164 49.3245 51.9836Z" fill="#00C3FF"/>
<path d="M37.9419 19.9837C38.0283 19.9837 38.1146 19.9837 38.2036 19.9837C38.4279 20.2396 38.6463 20.5008 38.8578 20.7674C38.4703 20.6873 38.2846 20.6036 37.9419 20.3755C37.9419 20.2462 37.9419 20.1169 37.9419 19.9837Z" fill="#00C3FF"/>
<path d="M26.821 9.01227C26.9073 9.01227 26.9937 9.01227 27.0827 9.01227C26.9845 9.63268 26.9845 9.63268 26.6902 9.92655C26.6084 9.61635 26.6084 9.61635 26.5593 9.27349C26.6457 9.18729 26.732 9.10108 26.821 9.01227Z" fill="#00C3FF"/>
</svg>
